<svg width="30" height="38" viewBox="0 0 30 38" fill="none" xmlns="http://www.w3.org/2000/svg">
<rect x="1" y="1" width="28" height="36" stroke-width="2"/>
<rect x="4.5" y="4.5" width="8" height="7"/>
<line x1="16" y1="4.5" x2="26" y2="4.5"/>
<line x1="16" y1="7.5" x2="26" y2="7.5"/>
<line x1="16" y1="10.5" x2="26" y2="10.5"/>
<line x1="4" y1="13.5" x2="26" y2="13.5"/>
<line x1="4" y1="16.5" x2="26" y2="16.5"/>
<line x1="4" y1="19.5" x2="26" y2="19.5"/>
<line x1="4" y1="22.5" x2="26" y2="22.5"/>
<line x1="4" y1="25.5" x2="26" y2="25.5"/>
<line x1="4" y1="28.5" x2="26" y2="28.5"/>
<line x1="4" y1="31.5" x2="26" y2="31.5"/>
<circle cx="8.5" cy="6.5" r="1.5"/>
<path d="M11 11C11 10.606 10.9353 10.2159 10.8097 9.85195C10.6841 9.48797 10.4999 9.15726 10.2678 8.87868C10.0356 8.6001 9.76002 8.37913 9.45671 8.22836C9.15339 8.0776 8.8283 8 8.5 8C8.1717 8 7.84661 8.0776 7.54329 8.22836C7.23998 8.37913 6.96438 8.6001 6.73223 8.87868C6.50009 9.15726 6.31594 9.48797 6.1903 9.85195C6.06466 10.2159 6 10.606 6 11L8.5 11H11Z"/>
</svg>
