<svg width="49" height="37" viewBox="0 0 49 37" fill="none" xmlns="http://www.w3.org/2000/svg">
<path d="M32.5368 32.6434L48.8416 26.7993L35.628 15.601L32.5368 32.6434ZM39.7472 24.1354L41.152 24.6614L41.152 24.6614L39.7472 24.1354ZM39.8984 12.984L38.4799 13.4718L39.8984 12.984ZM41.152 24.6614C42.6172 20.7484 42.6755 16.4476 41.3169 12.4963L38.4799 13.4718C39.6121 16.7645 39.5635 20.3486 38.3425 23.6094L41.152 24.6614ZM41.3169 12.4963C39.9582 8.54503 37.2673 5.1895 33.7054 3.00507L32.137 5.56243C35.1052 7.38279 37.3477 10.1791 38.4799 13.4718L41.3169 12.4963ZM33.7054 3.00507C30.1436 0.820634 25.9327 -0.0566192 21.7949 0.523729L22.2116 3.49465C25.6598 3.01103 29.1688 3.74207 32.137 5.56243L33.7054 3.00507Z"/>
<path d="M16.0434 4.54823L0.134274 11.3967L14.0197 21.7501L16.0434 4.54823ZM9.37694 13.4889L7.94216 13.0514L7.94216 13.0514L9.37694 13.4889ZM9.92073 24.628L11.3061 24.0528L9.92073 24.628ZM7.94216 13.0514C6.72352 17.048 6.93324 21.3442 8.53538 25.2031L11.3061 24.0528C9.97096 20.837 9.79619 17.2569 10.8117 13.9263L7.94216 13.0514ZM8.53538 25.2031C10.1375 29.0621 13.0323 32.2435 16.7233 34.2018L18.1293 31.5517C15.0535 29.9198 12.6412 27.2686 11.3061 24.0528L8.53538 25.2031ZM16.7233 34.2018C20.4143 36.1601 24.6716 36.7734 28.7652 35.9364L28.1643 32.9972C24.7529 33.6947 21.2051 33.1836 18.1293 31.5517L16.7233 34.2018Z"/>
</svg>
