<svg width="36" height="36" viewBox="0 0 36 36" fill="none" xmlns="http://www.w3.org/2000/svg">
<path d="M6 32.3589L31.1325 8L31.8285 8.71807L6.69597 33.077L6 32.3589Z"/>
<path d="M18 10.5C18 14.6421 14.6421 18 10.5 18C6.35786 18 3 14.6421 3 10.5C3 6.35786 6.35786 3 10.5 3C14.6421 3 18 6.35786 18 10.5Z"/>
<path d="M24.5878 32.0878C28.7299 32.0878 32.0878 28.7299 32.0878 24.5878C32.0878 23.2882 31.7572 22.0657 31.1756 21C33.5065 22.2721 35.0878 24.7453 35.0878 27.5878C35.0878 31.7299 31.7299 35.0878 27.5878 35.0878C24.7453 35.0878 22.2721 33.5065 21 31.1756C22.0657 31.7572 23.2882 32.0878 24.5878 32.0878Z"/>
<path d="M10.5 0L11.799 2.25H9.20096L10.5 0Z"/>
<path d="M10.5 21L9.20096 18.75H11.799L10.5 21Z"/>
<path d="M21.0687 10.5687L18.8187 11.8678V9.2697L21.0687 10.5687Z"/>
<path d="M19.4806 2.06066L17.0842 6.29419L15.2471 4.45707L19.4806 2.06066Z"/>
<path d="M2.06066 19.4806L4.45708 15.2471L6.29419 17.0842L2.06066 19.4806Z"/>
<path d="M1.56066 2.03935L5.79378 4.43535L3.95666 6.27247L1.56066 2.03935Z"/>
<path d="M19.1393 19.2607L14.9062 16.8647L16.7433 15.0275L19.1393 19.2607Z"/>
<path d="M0 10.5L2.25 9.20096V11.799L0 10.5Z"/>
<path d="M31 14L31.449 15.382H32.9021L31.7265 16.2361L32.1756 17.618L31 16.7639L29.8244 17.618L30.2735 16.2361L29.0979 15.382H30.551L31 14Z"/>
<path d="M28 23L28.449 24.382H29.9021L28.7265 25.2361L29.1756 26.618L28 25.7639L26.8244 26.618L27.2735 25.2361L26.0979 24.382H27.551L28 23Z"/>
<path d="M21 23L21.449 24.382H22.9021L21.7265 25.2361L22.1756 26.618L21 25.7639L19.8244 26.618L20.2735 25.2361L19.0979 24.382H20.551L21 23Z"/>
<path d="M16 30L16.449 31.382H17.9021L16.7265 32.2361L17.1756 33.618L16 32.7639L14.8244 33.618L15.2735 32.2361L14.0979 31.382H15.551L16 30Z"/>
</svg>
